<svg width="640" height="640" viewBox="0 0 640 640" fill="none" xmlns="http://www.w3.org/2000/svg">
  <defs>
    <radialGradient id="bg" cx="0" cy="0" r="1" gradientUnits="userSpaceOnUse" gradientTransform="translate(320 320) rotate(90) scale(320)">
      <stop stop-color="#ffffff" stop-opacity="0.95"/>
      <stop offset="1" stop-color="#EEF0F7" stop-opacity="0.6"/>
    </radialGradient>
    <linearGradient id="ring" x1="120" y1="140" x2="520" y2="500" gradientUnits="userSpaceOnUse">
      <stop stop-color="#009C3B"/>
      <stop offset="1" stop-color="#002776"/>
    </linearGradient>
    <linearGradient id="accent" x1="232" y1="226" x2="422" y2="422" gradientUnits="userSpaceOnUse">
      <stop stop-color="#23A464"/>
      <stop offset="1" stop-color="#0F6138"/>
    </linearGradient>
  </defs>

  <circle cx="320" cy="320" r="270" fill="url(#bg)"/>
  <circle cx="320" cy="320" r="208" stroke="url(#ring)" stroke-width="28"/>
  <circle cx="320" cy="320" r="154" stroke="#C9CFDF" stroke-opacity="0.8" stroke-width="2" stroke-dasharray="10 10"/>

  <circle cx="320" cy="320" r="92" fill="url(#accent)"/>
  <circle cx="320" cy="320" r="34" fill="#FFD84D"/>

  <path d="M190 266C220 224 271 196 329 196C402 196 464 240 491 305" stroke="#002776" stroke-width="12" stroke-linecap="round" opacity="0.55"/>
  <path d="M150 360C171 425 231 472 302 482" stroke="#002776" stroke-width="12" stroke-linecap="round" opacity="0.55"/>
  <path d="M360 485C441 468 504 401 513 321" stroke="#0F6138" stroke-width="12" stroke-linecap="round" opacity="0.65"/>

  <g opacity="0.9">
    <circle cx="214" cy="228" r="10" fill="#002776"/>
    <circle cx="442" cy="213" r="12" fill="#0F6138"/>
    <circle cx="475" cy="392" r="10" fill="#FFD84D"/>
    <circle cx="187" cy="427" r="8" fill="#002776"/>
  </g>
</svg>
